<svg xmlns="http://www.w3.org/2000/svg" xmlns:xlink="http://www.w3.org/1999/xlink" width="500" zoomAndPan="magnify" viewBox="0 0 375 374.999991" height="500" preserveAspectRatio="xMidYMid meet" version="1.0"><defs><clipPath id="a1e8ceab4f"><path d="M 28 4.5 L 352 4.5 L 352 370 L 28 370 Z M 28 4.5 " clip-rule="nonzero"/></clipPath></defs><g clip-path="url(#a1e8ceab4f)"><path fill="#1800ad" d="M 62.695312 166.582031 C 87.035156 104.632812 146.140625 63.46875 213.085938 62.605469 L 240.460938 45.714844 C 154.832031 21.441406 64.871094 69.109375 37.050781 153.164062 C 12.710938 225.964844 41.402344 303.515625 102.683594 344.25 C 54.433594 298.734375 38.359375 228.132812 62.695312 166.582031 Z M 306.96875 92.933594 C 358.675781 147.523438 366.5 230.300781 326.089844 293.539062 C 285.667969 356.8125 207.429688 384.542969 135.714844 361.144531 C 125.285156 316.074219 144.835938 269.726562 184.820312 246.332031 C 148.316406 233.328125 107.894531 236.800781 74.433594 255.863281 C 73.992188 205.152344 107.460938 157.050781 175.261719 112.425781 C 247.421875 71.691406 290.015625 35.738281 303.050781 4.53125 C 296.53125 87.726562 242.628906 159.664062 164.394531 189.117188 C 210.042969 202.984375 260.027344 191.730469 295.226562 159.664062 C 302.617188 191.285156 283.050781 225.519531 237.417969 261.917969 C 219.601562 273.171875 205.691406 289.652344 197.433594 309.574219 C 249.589844 311.324219 298.269531 282.703125 321.738281 235.910156 C 345.210938 189.5625 339.554688 133.65625 306.96875 92.933594 Z M 306.96875 92.933594 " fill-opacity="1" fill-rule="evenodd"/></g></svg>