<svg xmlns="http://www.w3.org/2000/svg" xmlns:xlink="http://www.w3.org/1999/xlink" width="500" zoomAndPan="magnify" viewBox="0 0 375 149.999998" height="200" preserveAspectRatio="xMidYMid meet" version="1.0"><defs><g/><clipPath id="145e808dd7"><path d="M 16 9.820312 L 128 9.820312 L 128 135 L 16 135 Z M 16 9.820312 " clip-rule="nonzero"/></clipPath><clipPath id="57a8a59771"><rect x="0" width="216" y="0" height="100"/></clipPath><clipPath id="4dc976aec9"><path d="M 0.480469 1 L 6 1 L 6 8 L 0.480469 8 Z M 0.480469 1 " clip-rule="nonzero"/></clipPath><clipPath id="39067aeed9"><rect x="0" width="206" y="0" height="22"/></clipPath></defs><g clip-path="url(#145e808dd7)"><path fill="#1800ad" d="M 28.402344 65.410156 C 36.75 44.164062 57.023438 30.042969 79.980469 29.75 L 89.371094 23.953125 C 60.003906 15.628906 29.148438 31.980469 19.605469 60.808594 C 11.257812 85.777344 21.097656 112.375 42.117188 126.347656 C 25.566406 110.738281 20.054688 86.519531 28.402344 65.410156 Z M 112.183594 40.152344 C 129.917969 58.875 132.601562 87.265625 118.742188 108.957031 C 104.875 130.65625 78.042969 140.167969 53.445312 132.140625 C 49.867188 116.683594 56.574219 100.789062 70.289062 92.761719 C 57.769531 88.304688 43.902344 89.496094 32.425781 96.03125 C 32.277344 78.640625 43.753906 62.140625 67.007812 46.835938 C 91.757812 32.863281 106.367188 20.53125 110.839844 9.832031 C 108.601562 38.363281 90.113281 63.039062 63.28125 73.140625 C 78.9375 77.894531 96.082031 74.035156 108.15625 63.039062 C 110.691406 73.882812 103.980469 85.625 88.328125 98.109375 C 82.21875 101.96875 77.445312 107.621094 74.613281 114.453125 C 92.503906 115.054688 109.199219 105.238281 117.25 89.1875 C 125.296875 73.292969 123.359375 54.117188 112.183594 40.152344 Z M 112.183594 40.152344 " fill-opacity="1" fill-rule="evenodd"/></g><g transform="matrix(1, 0, 0, 1, 135, 18)"><g clip-path="url(#57a8a59771)"><g fill="#020101" fill-opacity="1"><g transform="translate(1.499808, 73.79744)"><g><path d="M 22.578125 0.5 C 18.910156 0.5 15.625 -0.09375 12.71875 -1.28125 C 9.8125 -2.476562 7.488281 -4.242188 5.75 -6.578125 C 4.007812 -8.910156 3.09375 -11.722656 3 -15.015625 L 16.015625 -15.015625 C 16.203125 -13.148438 16.84375 -11.726562 17.9375 -10.75 C 19.03125 -9.78125 20.460938 -9.296875 22.234375 -9.296875 C 24.035156 -9.296875 25.460938 -9.710938 26.515625 -10.546875 C 27.566406 -11.378906 28.09375 -12.535156 28.09375 -14.015625 C 28.09375 -15.242188 27.671875 -16.265625 26.828125 -17.078125 C 25.992188 -17.890625 24.96875 -18.554688 23.75 -19.078125 C 22.539062 -19.609375 20.816406 -20.207031 18.578125 -20.875 C 15.335938 -21.875 12.691406 -22.875 10.640625 -23.875 C 8.597656 -24.875 6.835938 -26.347656 5.359375 -28.296875 C 3.878906 -30.253906 3.140625 -32.804688 3.140625 -35.953125 C 3.140625 -40.617188 4.832031 -44.273438 8.21875 -46.921875 C 11.601562 -49.566406 16.007812 -50.890625 21.4375 -50.890625 C 26.96875 -50.890625 31.421875 -49.566406 34.796875 -46.921875 C 38.179688 -44.273438 39.992188 -40.59375 40.234375 -35.875 L 27.015625 -35.875 C 26.921875 -37.5 26.320312 -38.773438 25.21875 -39.703125 C 24.125 -40.628906 22.722656 -41.09375 21.015625 -41.09375 C 19.535156 -41.09375 18.34375 -40.695312 17.4375 -39.90625 C 16.53125 -39.125 16.078125 -37.992188 16.078125 -36.515625 C 16.078125 -34.898438 16.835938 -33.640625 18.359375 -32.734375 C 19.890625 -31.828125 22.273438 -30.847656 25.515625 -29.796875 C 28.753906 -28.703125 31.382812 -27.65625 33.40625 -26.65625 C 35.4375 -25.65625 37.1875 -24.203125 38.65625 -22.296875 C 40.132812 -20.390625 40.875 -17.9375 40.875 -14.9375 C 40.875 -12.082031 40.144531 -9.484375 38.6875 -7.140625 C 37.238281 -4.804688 35.132812 -2.945312 32.375 -1.5625 C 29.613281 -0.1875 26.347656 0.5 22.578125 0.5 Z M 22.578125 0.5 "/></g></g></g><g fill="#020101" fill-opacity="1"><g transform="translate(45.440739, 73.79744)"><g><path d="M 16.65625 -50.171875 L 16.65625 0 L 4.4375 0 L 4.4375 -50.171875 Z M 16.65625 -50.171875 "/></g></g></g><g fill="#020101" fill-opacity="1"><g transform="translate(66.518094, 73.79744)"><g><path d="M 49.3125 0 L 37.09375 0 L 16.65625 -30.953125 L 16.65625 0 L 4.4375 0 L 4.4375 -50.171875 L 16.65625 -50.171875 L 37.09375 -19.078125 L 37.09375 -50.171875 L 49.3125 -50.171875 Z M 49.3125 0 "/></g></g></g><g fill="#020101" fill-opacity="1"><g transform="translate(120.247511, 73.79744)"><g><path d="M 40.515625 -50.171875 L 40.515625 -40.375 L 27.234375 -40.375 L 27.234375 0 L 15.015625 0 L 15.015625 -40.375 L 1.71875 -40.375 L 1.71875 -50.171875 Z M 40.515625 -50.171875 "/></g></g></g><g fill="#020101" fill-opacity="1"><g transform="translate(162.473669, 73.79744)"><g><path d="M 35.65625 -8.859375 L 16.9375 -8.859375 L 13.9375 0 L 1.140625 0 L 19.296875 -50.171875 L 33.453125 -50.171875 L 51.59375 0 L 38.671875 0 Z M 32.515625 -18.296875 L 26.296875 -36.65625 L 20.15625 -18.296875 Z M 32.515625 -18.296875 "/></g></g></g></g></g><g transform="matrix(1, 0, 0, 1, 144, 95)"><g clip-path="url(#39067aeed9)"><g clip-path="url(#4dc976aec9)"><g fill="#020101" fill-opacity="1"><g transform="translate(0.651074, 7.665059)"><g><path d="M 2.546875 0.09375 C 2.097656 0.09375 1.660156 0.0351562 1.234375 -0.078125 C 0.816406 -0.203125 0.484375 -0.363281 0.234375 -0.5625 L 0.671875 -1.546875 C 0.921875 -1.367188 1.210938 -1.222656 1.546875 -1.109375 C 1.878906 -1.003906 2.210938 -0.953125 2.546875 -0.953125 C 2.921875 -0.953125 3.195312 -1.007812 3.375 -1.125 C 3.550781 -1.238281 3.640625 -1.382812 3.640625 -1.5625 C 3.640625 -1.695312 3.585938 -1.8125 3.484375 -1.90625 C 3.378906 -2 3.242188 -2.070312 3.078125 -2.125 C 2.910156 -2.175781 2.6875 -2.234375 2.40625 -2.296875 C 1.976562 -2.398438 1.625 -2.503906 1.34375 -2.609375 C 1.070312 -2.710938 0.835938 -2.875 0.640625 -3.09375 C 0.441406 -3.320312 0.34375 -3.628906 0.34375 -4.015625 C 0.34375 -4.347656 0.429688 -4.644531 0.609375 -4.90625 C 0.785156 -5.175781 1.050781 -5.390625 1.40625 -5.546875 C 1.769531 -5.703125 2.210938 -5.78125 2.734375 -5.78125 C 3.097656 -5.78125 3.453125 -5.738281 3.796875 -5.65625 C 4.148438 -5.570312 4.457031 -5.445312 4.71875 -5.28125 L 4.3125 -4.28125 C 3.78125 -4.582031 3.253906 -4.734375 2.734375 -4.734375 C 2.359375 -4.734375 2.082031 -4.671875 1.90625 -4.546875 C 1.738281 -4.429688 1.65625 -4.273438 1.65625 -4.078125 C 1.65625 -3.878906 1.753906 -3.734375 1.953125 -3.640625 C 2.160156 -3.546875 2.472656 -3.453125 2.890625 -3.359375 C 3.316406 -3.253906 3.664062 -3.148438 3.9375 -3.046875 C 4.21875 -2.953125 4.457031 -2.789062 4.65625 -2.5625 C 4.851562 -2.34375 4.953125 -2.046875 4.953125 -1.671875 C 4.953125 -1.335938 4.859375 -1.035156 4.671875 -0.765625 C 4.492188 -0.503906 4.222656 -0.296875 3.859375 -0.140625 C 3.503906 0.015625 3.066406 0.09375 2.546875 0.09375 Z M 2.546875 0.09375 "/></g></g></g></g><g fill="#020101" fill-opacity="1"><g transform="translate(9.539529, 7.665059)"><g><path d="M 0.671875 -5.6875 L 1.984375 -5.6875 L 1.984375 0 L 0.671875 0 Z M 0.671875 -5.6875 "/></g></g></g><g fill="#020101" fill-opacity="1"><g transform="translate(15.90701, 7.665059)"><g><path d="M 2.546875 0.09375 C 2.097656 0.09375 1.660156 0.0351562 1.234375 -0.078125 C 0.816406 -0.203125 0.484375 -0.363281 0.234375 -0.5625 L 0.671875 -1.546875 C 0.921875 -1.367188 1.210938 -1.222656 1.546875 -1.109375 C 1.878906 -1.003906 2.210938 -0.953125 2.546875 -0.953125 C 2.921875 -0.953125 3.195312 -1.007812 3.375 -1.125 C 3.550781 -1.238281 3.640625 -1.382812 3.640625 -1.5625 C 3.640625 -1.695312 3.585938 -1.8125 3.484375 -1.90625 C 3.378906 -2 3.242188 -2.070312 3.078125 -2.125 C 2.910156 -2.175781 2.6875 -2.234375 2.40625 -2.296875 C 1.976562 -2.398438 1.625 -2.503906 1.34375 -2.609375 C 1.070312 -2.710938 0.835938 -2.875 0.640625 -3.09375 C 0.441406 -3.320312 0.34375 -3.628906 0.34375 -4.015625 C 0.34375 -4.347656 0.429688 -4.644531 0.609375 -4.90625 C 0.785156 -5.175781 1.050781 -5.390625 1.40625 -5.546875 C 1.769531 -5.703125 2.210938 -5.78125 2.734375 -5.78125 C 3.097656 -5.78125 3.453125 -5.738281 3.796875 -5.65625 C 4.148438 -5.570312 4.457031 -5.445312 4.71875 -5.28125 L 4.3125 -4.28125 C 3.78125 -4.582031 3.253906 -4.734375 2.734375 -4.734375 C 2.359375 -4.734375 2.082031 -4.671875 1.90625 -4.546875 C 1.738281 -4.429688 1.65625 -4.273438 1.65625 -4.078125 C 1.65625 -3.878906 1.753906 -3.734375 1.953125 -3.640625 C 2.160156 -3.546875 2.472656 -3.453125 2.890625 -3.359375 C 3.316406 -3.253906 3.664062 -3.148438 3.9375 -3.046875 C 4.21875 -2.953125 4.457031 -2.789062 4.65625 -2.5625 C 4.851562 -2.34375 4.953125 -2.046875 4.953125 -1.671875 C 4.953125 -1.335938 4.859375 -1.035156 4.671875 -0.765625 C 4.492188 -0.503906 4.222656 -0.296875 3.859375 -0.140625 C 3.503906 0.015625 3.066406 0.09375 2.546875 0.09375 Z M 2.546875 0.09375 "/></g></g></g><g fill="#020101" fill-opacity="1"><g transform="translate(24.795465, 7.665059)"><g><path d="M 1.859375 -4.609375 L 0.03125 -4.609375 L 0.03125 -5.6875 L 4.984375 -5.6875 L 4.984375 -4.609375 L 3.171875 -4.609375 L 3.171875 0 L 1.859375 0 Z M 1.859375 -4.609375 "/></g></g></g><g fill="#020101" fill-opacity="1"><g transform="translate(33.521274, 7.665059)"><g><path d="M 5.078125 -1.0625 L 5.078125 0 L 0.671875 0 L 0.671875 -5.6875 L 4.96875 -5.6875 L 4.96875 -4.625 L 1.984375 -4.625 L 1.984375 -3.390625 L 4.625 -3.390625 L 4.625 -2.375 L 1.984375 -2.375 L 1.984375 -1.0625 Z M 5.078125 -1.0625 "/></g></g></g><g fill="#020101" fill-opacity="1"><g transform="translate(42.678097, 7.665059)"><g><path d="M 5.84375 0 L 5.84375 -3.40625 L 4.171875 -0.59375 L 3.578125 -0.59375 L 1.90625 -3.34375 L 1.90625 0 L 0.671875 0 L 0.671875 -5.6875 L 1.765625 -5.6875 L 3.890625 -2.15625 L 5.984375 -5.6875 L 7.0625 -5.6875 L 7.078125 0 Z M 5.84375 0 "/></g></g></g><g fill="#020101" fill-opacity="1"><g transform="translate(54.144461, 7.665059)"><g/></g></g><g fill="#020101" fill-opacity="1"><g transform="translate(60.14599, 7.665059)"><g><path d="M 0.671875 -5.6875 L 1.984375 -5.6875 L 1.984375 0 L 0.671875 0 Z M 0.671875 -5.6875 "/></g></g></g><g fill="#020101" fill-opacity="1"><g transform="translate(66.513472, 7.665059)"><g><path d="M 5.890625 -5.6875 L 5.890625 0 L 4.8125 0 L 1.96875 -3.453125 L 1.96875 0 L 0.671875 0 L 0.671875 -5.6875 L 1.765625 -5.6875 L 4.59375 -2.234375 L 4.59375 -5.6875 Z M 5.890625 -5.6875 "/></g></g></g><g fill="#020101" fill-opacity="1"><g transform="translate(76.784406, 7.665059)"><g><path d="M 1.984375 -4.625 L 1.984375 -3.125 L 4.625 -3.125 L 4.625 -2.078125 L 1.984375 -2.078125 L 1.984375 0 L 0.671875 0 L 0.671875 -5.6875 L 4.96875 -5.6875 L 4.96875 -4.625 Z M 1.984375 -4.625 "/></g></g></g><g fill="#020101" fill-opacity="1"><g transform="translate(85.680999, 7.665059)"><g><path d="M 3.421875 0.09375 C 2.835938 0.09375 2.304688 -0.03125 1.828125 -0.28125 C 1.359375 -0.539062 0.988281 -0.890625 0.71875 -1.328125 C 0.445312 -1.773438 0.3125 -2.28125 0.3125 -2.84375 C 0.3125 -3.40625 0.445312 -3.90625 0.71875 -4.34375 C 0.988281 -4.789062 1.359375 -5.140625 1.828125 -5.390625 C 2.304688 -5.648438 2.835938 -5.78125 3.421875 -5.78125 C 4.015625 -5.78125 4.546875 -5.648438 5.015625 -5.390625 C 5.492188 -5.140625 5.867188 -4.789062 6.140625 -4.34375 C 6.410156 -3.90625 6.546875 -3.40625 6.546875 -2.84375 C 6.546875 -2.28125 6.410156 -1.773438 6.140625 -1.328125 C 5.867188 -0.890625 5.492188 -0.539062 5.015625 -0.28125 C 4.546875 -0.03125 4.015625 0.09375 3.421875 0.09375 Z M 3.421875 -1.03125 C 3.765625 -1.03125 4.070312 -1.101562 4.34375 -1.25 C 4.613281 -1.40625 4.820312 -1.617188 4.96875 -1.890625 C 5.125 -2.171875 5.203125 -2.488281 5.203125 -2.84375 C 5.203125 -3.195312 5.125 -3.507812 4.96875 -3.78125 C 4.820312 -4.0625 4.613281 -4.273438 4.34375 -4.421875 C 4.070312 -4.578125 3.765625 -4.65625 3.421875 -4.65625 C 3.085938 -4.65625 2.785156 -4.578125 2.515625 -4.421875 C 2.242188 -4.273438 2.03125 -4.0625 1.875 -3.78125 C 1.726562 -3.507812 1.65625 -3.195312 1.65625 -2.84375 C 1.65625 -2.488281 1.726562 -2.171875 1.875 -1.890625 C 2.03125 -1.617188 2.242188 -1.40625 2.515625 -1.25 C 2.785156 -1.101562 3.085938 -1.03125 3.421875 -1.03125 Z M 3.421875 -1.03125 "/></g></g></g><g fill="#020101" fill-opacity="1"><g transform="translate(96.244685, 7.665059)"><g><path d="M 4.296875 0 L 3.203125 -1.578125 L 1.984375 -1.578125 L 1.984375 0 L 0.671875 0 L 0.671875 -5.6875 L 3.140625 -5.6875 C 3.640625 -5.6875 4.070312 -5.601562 4.4375 -5.4375 C 4.8125 -5.269531 5.097656 -5.03125 5.296875 -4.71875 C 5.503906 -4.40625 5.609375 -4.039062 5.609375 -3.625 C 5.609375 -3.195312 5.503906 -2.832031 5.296875 -2.53125 C 5.097656 -2.226562 4.8125 -1.992188 4.4375 -1.828125 L 5.71875 0 Z M 4.28125 -3.625 C 4.28125 -3.945312 4.175781 -4.191406 3.96875 -4.359375 C 3.757812 -4.523438 3.457031 -4.609375 3.0625 -4.609375 L 1.984375 -4.609375 L 1.984375 -2.625 L 3.0625 -2.625 C 3.457031 -2.625 3.757812 -2.710938 3.96875 -2.890625 C 4.175781 -3.066406 4.28125 -3.3125 4.28125 -3.625 Z M 4.28125 -3.625 "/></g></g></g><g fill="#020101" fill-opacity="1"><g transform="translate(105.921969, 7.665059)"><g><path d="M 5.84375 0 L 5.84375 -3.40625 L 4.171875 -0.59375 L 3.578125 -0.59375 L 1.90625 -3.34375 L 1.90625 0 L 0.671875 0 L 0.671875 -5.6875 L 1.765625 -5.6875 L 3.890625 -2.15625 L 5.984375 -5.6875 L 7.0625 -5.6875 L 7.078125 0 Z M 5.84375 0 "/></g></g></g><g fill="#020101" fill-opacity="1"><g transform="translate(117.388333, 7.665059)"><g><path d="M 4.421875 -1.21875 L 1.78125 -1.21875 L 1.28125 0 L -0.078125 0 L 2.46875 -5.6875 L 3.765625 -5.6875 L 6.3125 0 L 4.921875 0 Z M 4 -2.21875 L 3.109375 -4.390625 L 2.203125 -2.21875 Z M 4 -2.21875 "/></g></g></g><g fill="#020101" fill-opacity="1"><g transform="translate(127.317708, 7.665059)"><g><path d="M 2.546875 0.09375 C 2.097656 0.09375 1.660156 0.0351562 1.234375 -0.078125 C 0.816406 -0.203125 0.484375 -0.363281 0.234375 -0.5625 L 0.671875 -1.546875 C 0.921875 -1.367188 1.210938 -1.222656 1.546875 -1.109375 C 1.878906 -1.003906 2.210938 -0.953125 2.546875 -0.953125 C 2.921875 -0.953125 3.195312 -1.007812 3.375 -1.125 C 3.550781 -1.238281 3.640625 -1.382812 3.640625 -1.5625 C 3.640625 -1.695312 3.585938 -1.8125 3.484375 -1.90625 C 3.378906 -2 3.242188 -2.070312 3.078125 -2.125 C 2.910156 -2.175781 2.6875 -2.234375 2.40625 -2.296875 C 1.976562 -2.398438 1.625 -2.503906 1.34375 -2.609375 C 1.070312 -2.710938 0.835938 -2.875 0.640625 -3.09375 C 0.441406 -3.320312 0.34375 -3.628906 0.34375 -4.015625 C 0.34375 -4.347656 0.429688 -4.644531 0.609375 -4.90625 C 0.785156 -5.175781 1.050781 -5.390625 1.40625 -5.546875 C 1.769531 -5.703125 2.210938 -5.78125 2.734375 -5.78125 C 3.097656 -5.78125 3.453125 -5.738281 3.796875 -5.65625 C 4.148438 -5.570312 4.457031 -5.445312 4.71875 -5.28125 L 4.3125 -4.28125 C 3.78125 -4.582031 3.253906 -4.734375 2.734375 -4.734375 C 2.359375 -4.734375 2.082031 -4.671875 1.90625 -4.546875 C 1.738281 -4.429688 1.65625 -4.273438 1.65625 -4.078125 C 1.65625 -3.878906 1.753906 -3.734375 1.953125 -3.640625 C 2.160156 -3.546875 2.472656 -3.453125 2.890625 -3.359375 C 3.316406 -3.253906 3.664062 -3.148438 3.9375 -3.046875 C 4.21875 -2.953125 4.457031 -2.789062 4.65625 -2.5625 C 4.851562 -2.34375 4.953125 -2.046875 4.953125 -1.671875 C 4.953125 -1.335938 4.859375 -1.035156 4.671875 -0.765625 C 4.492188 -0.503906 4.222656 -0.296875 3.859375 -0.140625 C 3.503906 0.015625 3.066406 0.09375 2.546875 0.09375 Z M 2.546875 0.09375 "/></g></g></g><g fill="#020101" fill-opacity="1"><g transform="translate(136.206164, 7.665059)"><g><path d="M 0.671875 -5.6875 L 1.984375 -5.6875 L 1.984375 0 L 0.671875 0 Z M 0.671875 -5.6875 "/></g></g></g><g fill="#020101" fill-opacity="1"><g transform="translate(142.573645, 7.665059)"><g/></g></g><g fill="#020101" fill-opacity="1"><g transform="translate(148.575174, 7.665059)"><g><path d="M 5.890625 -5.6875 L 5.890625 0 L 4.8125 0 L 1.96875 -3.453125 L 1.96875 0 L 0.671875 0 L 0.671875 -5.6875 L 1.765625 -5.6875 L 4.59375 -2.234375 L 4.59375 -5.6875 Z M 5.890625 -5.6875 "/></g></g></g><g fill="#020101" fill-opacity="1"><g transform="translate(158.846109, 7.665059)"><g><path d="M 4.421875 -1.21875 L 1.78125 -1.21875 L 1.28125 0 L -0.078125 0 L 2.46875 -5.6875 L 3.765625 -5.6875 L 6.3125 0 L 4.921875 0 Z M 4 -2.21875 L 3.109375 -4.390625 L 2.203125 -2.21875 Z M 4 -2.21875 "/></g></g></g><g fill="#020101" fill-opacity="1"><g transform="translate(168.775485, 7.665059)"><g><path d="M 4.515625 -2.9375 L 5.71875 -2.9375 L 5.71875 -0.625 C 5.40625 -0.394531 5.046875 -0.21875 4.640625 -0.09375 C 4.234375 0.03125 3.828125 0.09375 3.421875 0.09375 C 2.828125 0.09375 2.296875 -0.03125 1.828125 -0.28125 C 1.359375 -0.53125 0.988281 -0.878906 0.71875 -1.328125 C 0.445312 -1.773438 0.3125 -2.28125 0.3125 -2.84375 C 0.3125 -3.40625 0.445312 -3.910156 0.71875 -4.359375 C 0.988281 -4.804688 1.359375 -5.15625 1.828125 -5.40625 C 2.304688 -5.65625 2.84375 -5.78125 3.4375 -5.78125 C 3.9375 -5.78125 4.390625 -5.695312 4.796875 -5.53125 C 5.203125 -5.363281 5.546875 -5.117188 5.828125 -4.796875 L 4.984375 -4.015625 C 4.578125 -4.441406 4.085938 -4.65625 3.515625 -4.65625 C 3.148438 -4.65625 2.828125 -4.578125 2.546875 -4.421875 C 2.265625 -4.273438 2.046875 -4.0625 1.890625 -3.78125 C 1.734375 -3.507812 1.65625 -3.195312 1.65625 -2.84375 C 1.65625 -2.488281 1.734375 -2.171875 1.890625 -1.890625 C 2.046875 -1.617188 2.257812 -1.40625 2.53125 -1.25 C 2.8125 -1.101562 3.132812 -1.03125 3.5 -1.03125 C 3.875 -1.03125 4.210938 -1.109375 4.515625 -1.265625 Z M 4.515625 -2.9375 "/></g></g></g><g fill="#020101" fill-opacity="1"><g transform="translate(178.74553, 7.665059)"><g><path d="M 4.421875 -1.21875 L 1.78125 -1.21875 L 1.28125 0 L -0.078125 0 L 2.46875 -5.6875 L 3.765625 -5.6875 L 6.3125 0 L 4.921875 0 Z M 4 -2.21875 L 3.109375 -4.390625 L 2.203125 -2.21875 Z M 4 -2.21875 "/></g></g></g><g fill="#020101" fill-opacity="1"><g transform="translate(188.674896, 7.665059)"><g><path d="M 4.296875 0 L 3.203125 -1.578125 L 1.984375 -1.578125 L 1.984375 0 L 0.671875 0 L 0.671875 -5.6875 L 3.140625 -5.6875 C 3.640625 -5.6875 4.070312 -5.601562 4.4375 -5.4375 C 4.8125 -5.269531 5.097656 -5.03125 5.296875 -4.71875 C 5.503906 -4.40625 5.609375 -4.039062 5.609375 -3.625 C 5.609375 -3.195312 5.503906 -2.832031 5.296875 -2.53125 C 5.097656 -2.226562 4.8125 -1.992188 4.4375 -1.828125 L 5.71875 0 Z M 4.28125 -3.625 C 4.28125 -3.945312 4.175781 -4.191406 3.96875 -4.359375 C 3.757812 -4.523438 3.457031 -4.609375 3.0625 -4.609375 L 1.984375 -4.609375 L 1.984375 -2.625 L 3.0625 -2.625 C 3.457031 -2.625 3.757812 -2.710938 3.96875 -2.890625 C 4.175781 -3.066406 4.28125 -3.3125 4.28125 -3.625 Z M 4.28125 -3.625 "/></g></g></g><g fill="#020101" fill-opacity="1"><g transform="translate(198.35218, 7.665059)"><g><path d="M 0.671875 -5.6875 L 1.984375 -5.6875 L 1.984375 0 L 0.671875 0 Z M 0.671875 -5.6875 "/></g></g></g><g fill="#020101" fill-opacity="1"><g transform="translate(68.853021, 18.507908)"><g><path d="M 1.859375 -4.609375 L 0.03125 -4.609375 L 0.03125 -5.6875 L 4.984375 -5.6875 L 4.984375 -4.609375 L 3.171875 -4.609375 L 3.171875 0 L 1.859375 0 Z M 1.859375 -4.609375 "/></g></g></g><g fill="#020101" fill-opacity="1"><g transform="translate(77.578829, 18.507908)"><g><path d="M 5.078125 -1.0625 L 5.078125 0 L 0.671875 0 L 0.671875 -5.6875 L 4.96875 -5.6875 L 4.96875 -4.625 L 1.984375 -4.625 L 1.984375 -3.390625 L 4.625 -3.390625 L 4.625 -2.375 L 1.984375 -2.375 L 1.984375 -1.0625 Z M 5.078125 -1.0625 "/></g></g></g><g fill="#020101" fill-opacity="1"><g transform="translate(86.735653, 18.507908)"><g><path d="M 4.296875 0 L 3.203125 -1.578125 L 1.984375 -1.578125 L 1.984375 0 L 0.671875 0 L 0.671875 -5.6875 L 3.140625 -5.6875 C 3.640625 -5.6875 4.070312 -5.601562 4.4375 -5.4375 C 4.8125 -5.269531 5.097656 -5.03125 5.296875 -4.71875 C 5.503906 -4.40625 5.609375 -4.039062 5.609375 -3.625 C 5.609375 -3.195312 5.503906 -2.832031 5.296875 -2.53125 C 5.097656 -2.226562 4.8125 -1.992188 4.4375 -1.828125 L 5.71875 0 Z M 4.28125 -3.625 C 4.28125 -3.945312 4.175781 -4.191406 3.96875 -4.359375 C 3.757812 -4.523438 3.457031 -4.609375 3.0625 -4.609375 L 1.984375 -4.609375 L 1.984375 -2.625 L 3.0625 -2.625 C 3.457031 -2.625 3.757812 -2.710938 3.96875 -2.890625 C 4.175781 -3.066406 4.28125 -3.3125 4.28125 -3.625 Z M 4.28125 -3.625 "/></g></g></g><g fill="#020101" fill-opacity="1"><g transform="translate(96.412937, 18.507908)"><g><path d="M 3.140625 -5.6875 C 3.640625 -5.6875 4.070312 -5.601562 4.4375 -5.4375 C 4.8125 -5.269531 5.097656 -5.03125 5.296875 -4.71875 C 5.503906 -4.40625 5.609375 -4.039062 5.609375 -3.625 C 5.609375 -3.207031 5.503906 -2.84375 5.296875 -2.53125 C 5.097656 -2.21875 4.8125 -1.976562 4.4375 -1.8125 C 4.070312 -1.644531 3.640625 -1.5625 3.140625 -1.5625 L 1.984375 -1.5625 L 1.984375 0 L 0.671875 0 L 0.671875 -5.6875 Z M 3.0625 -2.640625 C 3.457031 -2.640625 3.757812 -2.722656 3.96875 -2.890625 C 4.175781 -3.066406 4.28125 -3.3125 4.28125 -3.625 C 4.28125 -3.945312 4.175781 -4.191406 3.96875 -4.359375 C 3.757812 -4.523438 3.457031 -4.609375 3.0625 -4.609375 L 1.984375 -4.609375 L 1.984375 -2.640625 Z M 3.0625 -2.640625 "/></g></g></g><g fill="#020101" fill-opacity="1"><g transform="translate(106.065817, 18.507908)"><g><path d="M 4.421875 -1.21875 L 1.78125 -1.21875 L 1.28125 0 L -0.078125 0 L 2.46875 -5.6875 L 3.765625 -5.6875 L 6.3125 0 L 4.921875 0 Z M 4 -2.21875 L 3.109375 -4.390625 L 2.203125 -2.21875 Z M 4 -2.21875 "/></g></g></g><g fill="#020101" fill-opacity="1"><g transform="translate(115.995193, 18.507908)"><g><path d="M 0.671875 -5.6875 L 3.265625 -5.6875 C 3.878906 -5.6875 4.421875 -5.566406 4.890625 -5.328125 C 5.367188 -5.097656 5.738281 -4.769531 6 -4.34375 C 6.257812 -3.914062 6.390625 -3.414062 6.390625 -2.84375 C 6.390625 -2.269531 6.257812 -1.769531 6 -1.34375 C 5.738281 -0.914062 5.367188 -0.582031 4.890625 -0.34375 C 4.421875 -0.113281 3.878906 0 3.265625 0 L 0.671875 0 Z M 3.1875 -1.078125 C 3.757812 -1.078125 4.210938 -1.234375 4.546875 -1.546875 C 4.890625 -1.867188 5.0625 -2.300781 5.0625 -2.84375 C 5.0625 -3.382812 4.890625 -3.8125 4.546875 -4.125 C 4.210938 -4.445312 3.757812 -4.609375 3.1875 -4.609375 L 1.984375 -4.609375 L 1.984375 -1.078125 Z M 3.1875 -1.078125 "/></g></g></g><g fill="#020101" fill-opacity="1"><g transform="translate(126.412498, 18.507908)"><g><path d="M 3.203125 0.09375 C 2.390625 0.09375 1.753906 -0.128906 1.296875 -0.578125 C 0.847656 -1.023438 0.625 -1.664062 0.625 -2.5 L 0.625 -5.6875 L 1.9375 -5.6875 L 1.9375 -2.546875 C 1.9375 -1.535156 2.359375 -1.03125 3.203125 -1.03125 C 3.617188 -1.03125 3.9375 -1.148438 4.15625 -1.390625 C 4.375 -1.640625 4.484375 -2.023438 4.484375 -2.546875 L 4.484375 -5.6875 L 5.78125 -5.6875 L 5.78125 -2.5 C 5.78125 -1.664062 5.550781 -1.023438 5.09375 -0.578125 C 4.644531 -0.128906 4.015625 0.09375 3.203125 0.09375 Z M 3.203125 0.09375 "/></g></g></g></g></g></svg>