<svg xmlns="http://www.w3.org/2000/svg" xmlns:xlink="http://www.w3.org/1999/xlink" width="1000" zoomAndPan="magnify" viewBox="0 0 750 149.999998" height="200" preserveAspectRatio="xMidYMid meet" version="1.0"><defs><g/><clipPath id="0ac3bab461"><path d="M 37 4.09375 L 159 4.09375 L 159 141 L 37 141 Z M 37 4.09375 " clip-rule="nonzero"/></clipPath><clipPath id="24902c9f71"><rect x="0" width="540" y="0" height="109"/></clipPath></defs><g clip-path="url(#0ac3bab461)"><path fill="#1800ad" d="M 50.414062 64.570312 C 59.492188 41.457031 81.546875 26.101562 106.523438 25.777344 L 116.734375 19.476562 C 84.789062 10.421875 51.222656 28.203125 40.84375 59.5625 C 31.765625 86.726562 42.46875 115.660156 65.332031 130.859375 C 47.332031 113.875 41.332031 87.535156 50.414062 64.570312 Z M 141.546875 37.09375 C 160.839844 57.460938 163.757812 88.34375 148.683594 111.9375 C 133.601562 135.542969 104.410156 145.890625 77.65625 137.160156 C 73.765625 120.34375 81.058594 103.054688 95.976562 94.324219 C 82.355469 89.472656 67.273438 90.769531 54.789062 97.878906 C 54.628906 78.960938 67.113281 61.015625 92.410156 44.367188 C 119.332031 29.167969 135.222656 15.753906 140.085938 4.113281 C 137.65625 35.148438 117.542969 61.992188 88.355469 72.980469 C 105.386719 78.152344 124.035156 73.953125 137.167969 61.992188 C 139.925781 73.789062 132.625 86.558594 115.601562 100.140625 C 108.953125 104.339844 103.761719 110.488281 100.679688 117.917969 C 120.140625 118.574219 138.300781 107.894531 147.058594 90.4375 C 155.816406 73.144531 153.707031 52.285156 141.546875 37.09375 Z M 141.546875 37.09375 " fill-opacity="1" fill-rule="evenodd"/></g><g transform="matrix(1, 0, 0, 1, 169, 16)"><g clip-path="url(#24902c9f71)"><g fill="#020101" fill-opacity="1"><g transform="translate(1.339363, 80.192158)"><g><path d="M 24.5625 0.546875 C 20.570312 0.546875 16.992188 -0.0976562 13.828125 -1.390625 C 10.671875 -2.691406 8.144531 -4.609375 6.25 -7.140625 C 4.363281 -9.679688 3.367188 -12.742188 3.265625 -16.328125 L 17.40625 -16.328125 C 17.613281 -14.304688 18.3125 -12.765625 19.5 -11.703125 C 20.695312 -10.640625 22.253906 -10.109375 24.171875 -10.109375 C 26.140625 -10.109375 27.691406 -10.5625 28.828125 -11.46875 C 29.972656 -12.375 30.546875 -13.628906 30.546875 -15.234375 C 30.546875 -16.578125 30.09375 -17.691406 29.1875 -18.578125 C 28.28125 -19.460938 27.164062 -20.1875 25.84375 -20.75 C 24.519531 -21.320312 22.644531 -21.972656 20.21875 -22.703125 C 16.6875 -23.785156 13.804688 -24.867188 11.578125 -25.953125 C 9.347656 -27.046875 7.429688 -28.65625 5.828125 -30.78125 C 4.222656 -32.90625 3.421875 -35.675781 3.421875 -39.09375 C 3.421875 -44.175781 5.257812 -48.15625 8.9375 -51.03125 C 12.613281 -53.90625 17.410156 -55.34375 23.328125 -55.34375 C 29.335938 -55.34375 34.179688 -53.90625 37.859375 -51.03125 C 41.535156 -48.15625 43.503906 -44.148438 43.765625 -39.015625 L 29.390625 -39.015625 C 29.285156 -40.785156 28.632812 -42.175781 27.4375 -43.1875 C 26.25 -44.195312 24.722656 -44.703125 22.859375 -44.703125 C 21.242188 -44.703125 19.941406 -44.269531 18.953125 -43.40625 C 17.972656 -42.550781 17.484375 -41.320312 17.484375 -39.71875 C 17.484375 -37.957031 18.3125 -36.582031 19.96875 -35.59375 C 21.632812 -34.613281 24.226562 -33.554688 27.75 -32.421875 C 31.269531 -31.222656 34.128906 -30.078125 36.328125 -28.984375 C 38.535156 -27.898438 40.441406 -26.320312 42.046875 -24.25 C 43.660156 -22.175781 44.46875 -19.507812 44.46875 -16.25 C 44.46875 -13.132812 43.675781 -10.304688 42.09375 -7.765625 C 40.507812 -5.234375 38.210938 -3.210938 35.203125 -1.703125 C 32.203125 -0.203125 28.65625 0.546875 24.5625 0.546875 Z M 24.5625 0.546875 "/></g></g></g><g fill="#020101" fill-opacity="1"><g transform="translate(49.139705, 80.192158)"><g><path d="M 18.109375 -54.5625 L 18.109375 0 L 4.8125 0 L 4.8125 -54.5625 Z M 18.109375 -54.5625 "/></g></g></g><g fill="#020101" fill-opacity="1"><g transform="translate(72.068322, 80.192158)"><g><path d="M 53.640625 0 L 40.34375 0 L 18.109375 -33.65625 L 18.109375 0 L 4.8125 0 L 4.8125 -54.5625 L 18.109375 -54.5625 L 40.34375 -20.75 L 40.34375 -54.5625 L 53.640625 -54.5625 Z M 53.640625 0 "/></g></g></g><g fill="#020101" fill-opacity="1"><g transform="translate(130.51689, 80.192158)"><g><path d="M 44.078125 -54.5625 L 44.078125 -43.921875 L 29.609375 -43.921875 L 29.609375 0 L 16.328125 0 L 16.328125 -43.921875 L 1.859375 -43.921875 L 1.859375 -54.5625 Z M 44.078125 -54.5625 "/></g></g></g><g fill="#020101" fill-opacity="1"><g transform="translate(176.451847, 80.192158)"><g><path d="M 38.796875 -9.640625 L 18.421875 -9.640625 L 15.15625 0 L 1.25 0 L 20.984375 -54.5625 L 36.375 -54.5625 L 56.125 0 L 42.046875 0 Z M 35.375 -19.90625 L 28.609375 -39.875 L 21.921875 -19.90625 Z M 35.375 -19.90625 "/></g></g></g><g fill="#020101" fill-opacity="1"><g transform="translate(233.734539, 80.192158)"><g><path d="M 53.640625 0 L 40.34375 0 L 18.109375 -33.65625 L 18.109375 0 L 4.8125 0 L 4.8125 -54.5625 L 18.109375 -54.5625 L 40.34375 -20.75 L 40.34375 -54.5625 L 53.640625 -54.5625 Z M 53.640625 0 "/></g></g></g><g fill="#020101" fill-opacity="1"><g transform="translate(292.183107, 80.192158)"><g><path d="M 38.796875 -9.640625 L 18.421875 -9.640625 L 15.15625 0 L 1.25 0 L 20.984375 -54.5625 L 36.375 -54.5625 L 56.125 0 L 42.046875 0 Z M 35.375 -19.90625 L 28.609375 -39.875 L 21.921875 -19.90625 Z M 35.375 -19.90625 "/></g></g></g><g fill="#020101" fill-opacity="1"><g transform="translate(349.4658, 80.192158)"><g><path d="M 41.046875 -37.3125 C 40.054688 -39.125 38.640625 -40.507812 36.796875 -41.46875 C 34.960938 -42.425781 32.800781 -42.90625 30.3125 -42.90625 C 26.007812 -42.90625 22.5625 -41.492188 19.96875 -38.671875 C 17.382812 -35.847656 16.09375 -32.078125 16.09375 -27.359375 C 16.09375 -22.335938 17.453125 -18.410156 20.171875 -15.578125 C 22.890625 -12.753906 26.632812 -11.34375 31.40625 -11.34375 C 34.664062 -11.34375 37.421875 -12.171875 39.671875 -13.828125 C 41.929688 -15.492188 43.582031 -17.878906 44.625 -20.984375 L 27.75 -20.984375 L 27.75 -30.78125 L 56.671875 -30.78125 L 56.671875 -18.421875 C 55.679688 -15.109375 54.007812 -12.023438 51.65625 -9.171875 C 49.300781 -6.316406 46.304688 -4.007812 42.671875 -2.25 C 39.046875 -0.488281 34.953125 0.390625 30.390625 0.390625 C 25.003906 0.390625 20.195312 -0.785156 15.96875 -3.140625 C 11.75 -5.503906 8.457031 -8.785156 6.09375 -12.984375 C 3.738281 -17.179688 2.5625 -21.972656 2.5625 -27.359375 C 2.5625 -32.753906 3.738281 -37.5625 6.09375 -41.78125 C 8.457031 -46.007812 11.738281 -49.300781 15.9375 -51.65625 C 20.132812 -54.007812 24.925781 -55.1875 30.3125 -55.1875 C 36.84375 -55.1875 42.347656 -53.601562 46.828125 -50.4375 C 51.316406 -47.28125 54.285156 -42.90625 55.734375 -37.3125 Z M 41.046875 -37.3125 "/></g></g></g><g fill="#020101" fill-opacity="1"><g transform="translate(408.691601, 80.192158)"><g><path d="M 38.796875 -9.640625 L 18.421875 -9.640625 L 15.15625 0 L 1.25 0 L 20.984375 -54.5625 L 36.375 -54.5625 L 56.125 0 L 42.046875 0 Z M 35.375 -19.90625 L 28.609375 -39.875 L 21.921875 -19.90625 Z M 35.375 -19.90625 "/></g></g></g><g fill="#020101" fill-opacity="1"><g transform="translate(465.974267, 80.192158)"><g><path d="M 32.65625 0 L 21.296875 -20.59375 L 18.109375 -20.59375 L 18.109375 0 L 4.8125 0 L 4.8125 -54.5625 L 27.125 -54.5625 C 31.425781 -54.5625 35.09375 -53.8125 38.125 -52.3125 C 41.15625 -50.8125 43.421875 -48.75 44.921875 -46.125 C 46.429688 -43.507812 47.1875 -40.597656 47.1875 -37.390625 C 47.1875 -33.765625 46.160156 -30.523438 44.109375 -27.671875 C 42.066406 -24.816406 39.050781 -22.796875 35.0625 -21.609375 L 47.65625 0 Z M 18.109375 -30 L 26.359375 -30 C 28.785156 -30 30.609375 -30.59375 31.828125 -31.78125 C 33.046875 -32.976562 33.65625 -34.664062 33.65625 -36.84375 C 33.65625 -38.914062 33.046875 -40.546875 31.828125 -41.734375 C 30.609375 -42.929688 28.785156 -43.53125 26.359375 -43.53125 L 18.109375 -43.53125 Z M 18.109375 -30 "/></g></g></g><g fill="#020101" fill-opacity="1"><g transform="translate(516.650398, 80.192158)"><g><path d="M 18.109375 -54.5625 L 18.109375 0 L 4.8125 0 L 4.8125 -54.5625 Z M 18.109375 -54.5625 "/></g></g></g></g></g><g fill="#020101" fill-opacity="1"><g transform="translate(195.705816, 117.720538)"><g><path d="M 4.640625 0.171875 C 3.816406 0.171875 3.019531 0.0625 2.25 -0.15625 C 1.488281 -0.375 0.878906 -0.664062 0.421875 -1.03125 L 1.234375 -2.828125 C 1.679688 -2.503906 2.207031 -2.242188 2.8125 -2.046875 C 3.425781 -1.847656 4.039062 -1.75 4.65625 -1.75 C 5.34375 -1.75 5.847656 -1.847656 6.171875 -2.046875 C 6.503906 -2.253906 6.671875 -2.523438 6.671875 -2.859375 C 6.671875 -3.109375 6.570312 -3.3125 6.375 -3.46875 C 6.175781 -3.632812 5.925781 -3.765625 5.625 -3.859375 C 5.332031 -3.960938 4.925781 -4.078125 4.40625 -4.203125 C 3.613281 -4.390625 2.960938 -4.578125 2.453125 -4.765625 C 1.953125 -4.953125 1.519531 -5.253906 1.15625 -5.671875 C 0.800781 -6.085938 0.625 -6.640625 0.625 -7.328125 C 0.625 -7.929688 0.785156 -8.476562 1.109375 -8.96875 C 1.441406 -9.457031 1.9375 -9.84375 2.59375 -10.125 C 3.25 -10.414062 4.050781 -10.5625 5 -10.5625 C 5.664062 -10.5625 6.3125 -10.484375 6.9375 -10.328125 C 7.570312 -10.171875 8.128906 -9.941406 8.609375 -9.640625 L 7.859375 -7.828125 C 6.898438 -8.367188 5.941406 -8.640625 4.984375 -8.640625 C 4.316406 -8.640625 3.820312 -8.53125 3.5 -8.3125 C 3.175781 -8.09375 3.015625 -7.804688 3.015625 -7.453125 C 3.015625 -7.097656 3.195312 -6.832031 3.5625 -6.65625 C 3.9375 -6.476562 4.503906 -6.304688 5.265625 -6.140625 C 6.054688 -5.953125 6.703125 -5.765625 7.203125 -5.578125 C 7.710938 -5.390625 8.144531 -5.09375 8.5 -4.6875 C 8.863281 -4.28125 9.046875 -3.734375 9.046875 -3.046875 C 9.046875 -2.453125 8.878906 -1.910156 8.546875 -1.421875 C 8.222656 -0.929688 7.726562 -0.539062 7.0625 -0.25 C 6.40625 0.03125 5.597656 0.171875 4.640625 0.171875 Z M 4.640625 0.171875 "/></g></g></g><g fill="#020101" fill-opacity="1"><g transform="translate(211.926224, 117.720538)"><g><path d="M 1.234375 -10.390625 L 3.640625 -10.390625 L 3.640625 0 L 1.234375 0 Z M 1.234375 -10.390625 "/></g></g></g><g fill="#020101" fill-opacity="1"><g transform="translate(223.54747, 117.720538)"><g><path d="M 4.640625 0.171875 C 3.816406 0.171875 3.019531 0.0625 2.25 -0.15625 C 1.488281 -0.375 0.878906 -0.664062 0.421875 -1.03125 L 1.234375 -2.828125 C 1.679688 -2.503906 2.207031 -2.242188 2.8125 -2.046875 C 3.425781 -1.847656 4.039062 -1.75 4.65625 -1.75 C 5.34375 -1.75 5.847656 -1.847656 6.171875 -2.046875 C 6.503906 -2.253906 6.671875 -2.523438 6.671875 -2.859375 C 6.671875 -3.109375 6.570312 -3.3125 6.375 -3.46875 C 6.175781 -3.632812 5.925781 -3.765625 5.625 -3.859375 C 5.332031 -3.960938 4.925781 -4.078125 4.40625 -4.203125 C 3.613281 -4.390625 2.960938 -4.578125 2.453125 -4.765625 C 1.953125 -4.953125 1.519531 -5.253906 1.15625 -5.671875 C 0.800781 -6.085938 0.625 -6.640625 0.625 -7.328125 C 0.625 -7.929688 0.785156 -8.476562 1.109375 -8.96875 C 1.441406 -9.457031 1.9375 -9.84375 2.59375 -10.125 C 3.25 -10.414062 4.050781 -10.5625 5 -10.5625 C 5.664062 -10.5625 6.3125 -10.484375 6.9375 -10.328125 C 7.570312 -10.171875 8.128906 -9.941406 8.609375 -9.640625 L 7.859375 -7.828125 C 6.898438 -8.367188 5.941406 -8.640625 4.984375 -8.640625 C 4.316406 -8.640625 3.820312 -8.53125 3.5 -8.3125 C 3.175781 -8.09375 3.015625 -7.804688 3.015625 -7.453125 C 3.015625 -7.097656 3.195312 -6.832031 3.5625 -6.65625 C 3.9375 -6.476562 4.503906 -6.304688 5.265625 -6.140625 C 6.054688 -5.953125 6.703125 -5.765625 7.203125 -5.578125 C 7.710938 -5.390625 8.144531 -5.09375 8.5 -4.6875 C 8.863281 -4.28125 9.046875 -3.734375 9.046875 -3.046875 C 9.046875 -2.453125 8.878906 -1.910156 8.546875 -1.421875 C 8.222656 -0.929688 7.726562 -0.539062 7.0625 -0.25 C 6.40625 0.03125 5.597656 0.171875 4.640625 0.171875 Z M 4.640625 0.171875 "/></g></g></g><g fill="#020101" fill-opacity="1"><g transform="translate(239.767879, 117.720538)"><g><path d="M 3.390625 -8.4375 L 0.0625 -8.4375 L 0.0625 -10.390625 L 9.109375 -10.390625 L 9.109375 -8.4375 L 5.78125 -8.4375 L 5.78125 0 L 3.390625 0 Z M 3.390625 -8.4375 "/></g></g></g><g fill="#020101" fill-opacity="1"><g transform="translate(255.691565, 117.720538)"><g><path d="M 9.28125 -1.921875 L 9.28125 0 L 1.234375 0 L 1.234375 -10.390625 L 9.078125 -10.390625 L 9.078125 -8.453125 L 3.625 -8.453125 L 3.625 -6.203125 L 8.453125 -6.203125 L 8.453125 -4.328125 L 3.625 -4.328125 L 3.625 -1.921875 Z M 9.28125 -1.921875 "/></g></g></g><g fill="#020101" fill-opacity="1"><g transform="translate(272.401563, 117.720538)"><g><path d="M 10.6875 0 L 10.671875 -6.234375 L 7.609375 -1.09375 L 6.53125 -1.09375 L 3.484375 -6.09375 L 3.484375 0 L 1.234375 0 L 1.234375 -10.390625 L 3.21875 -10.390625 L 7.109375 -3.9375 L 10.9375 -10.390625 L 12.90625 -10.390625 L 12.9375 0 Z M 10.6875 0 "/></g></g></g><g fill="#020101" fill-opacity="1"><g transform="translate(293.32499, 117.720538)"><g/></g></g><g fill="#020101" fill-opacity="1"><g transform="translate(304.278621, 117.720538)"><g><path d="M 1.234375 -10.390625 L 3.640625 -10.390625 L 3.640625 0 L 1.234375 0 Z M 1.234375 -10.390625 "/></g></g></g><g fill="#020101" fill-opacity="1"><g transform="translate(315.899867, 117.720538)"><g><path d="M 10.765625 -10.390625 L 10.765625 0 L 8.78125 0 L 3.609375 -6.3125 L 3.609375 0 L 1.234375 0 L 1.234375 -10.390625 L 3.21875 -10.390625 L 8.390625 -4.078125 L 8.390625 -10.390625 Z M 10.765625 -10.390625 "/></g></g></g><g fill="#020101" fill-opacity="1"><g transform="translate(334.642404, 117.720538)"><g><path d="M 3.640625 -8.453125 L 3.640625 -5.71875 L 8.453125 -5.71875 L 8.453125 -3.78125 L 3.640625 -3.78125 L 3.640625 0 L 1.234375 0 L 1.234375 -10.390625 L 9.078125 -10.390625 L 9.078125 -8.453125 Z M 3.640625 -8.453125 "/></g></g></g><g fill="#020101" fill-opacity="1"><g transform="translate(350.877655, 117.720538)"><g><path d="M 6.265625 0.171875 C 5.179688 0.171875 4.207031 -0.0546875 3.34375 -0.515625 C 2.476562 -0.984375 1.800781 -1.625 1.3125 -2.4375 C 0.820312 -3.257812 0.578125 -4.175781 0.578125 -5.1875 C 0.578125 -6.207031 0.820312 -7.125 1.3125 -7.9375 C 1.800781 -8.757812 2.476562 -9.398438 3.34375 -9.859375 C 4.207031 -10.328125 5.179688 -10.5625 6.265625 -10.5625 C 7.335938 -10.5625 8.304688 -10.328125 9.171875 -9.859375 C 10.035156 -9.398438 10.710938 -8.757812 11.203125 -7.9375 C 11.703125 -7.125 11.953125 -6.207031 11.953125 -5.1875 C 11.953125 -4.175781 11.703125 -3.257812 11.203125 -2.4375 C 10.710938 -1.625 10.035156 -0.984375 9.171875 -0.515625 C 8.304688 -0.0546875 7.335938 0.171875 6.265625 0.171875 Z M 6.265625 -1.875 C 6.878906 -1.875 7.429688 -2.015625 7.921875 -2.296875 C 8.421875 -2.578125 8.8125 -2.96875 9.09375 -3.46875 C 9.375 -3.976562 9.515625 -4.550781 9.515625 -5.1875 C 9.515625 -5.832031 9.375 -6.40625 9.09375 -6.90625 C 8.8125 -7.414062 8.421875 -7.8125 7.921875 -8.09375 C 7.429688 -8.375 6.878906 -8.515625 6.265625 -8.515625 C 5.648438 -8.515625 5.09375 -8.375 4.59375 -8.09375 C 4.101562 -7.8125 3.71875 -7.414062 3.4375 -6.90625 C 3.15625 -6.40625 3.015625 -5.832031 3.015625 -5.1875 C 3.015625 -4.550781 3.15625 -3.976562 3.4375 -3.46875 C 3.71875 -2.96875 4.101562 -2.578125 4.59375 -2.296875 C 5.09375 -2.015625 5.648438 -1.875 6.265625 -1.875 Z M 6.265625 -1.875 "/></g></g></g><g fill="#020101" fill-opacity="1"><g transform="translate(370.154288, 117.720538)"><g><path d="M 7.859375 0 L 5.84375 -2.890625 L 3.640625 -2.890625 L 3.640625 0 L 1.234375 0 L 1.234375 -10.390625 L 5.734375 -10.390625 C 6.648438 -10.390625 7.445312 -10.234375 8.125 -9.921875 C 8.800781 -9.617188 9.320312 -9.1875 9.6875 -8.625 C 10.050781 -8.0625 10.234375 -7.394531 10.234375 -6.625 C 10.234375 -5.851562 10.046875 -5.1875 9.671875 -4.625 C 9.304688 -4.0625 8.785156 -3.632812 8.109375 -3.34375 L 10.4375 0 Z M 7.8125 -6.625 C 7.8125 -7.207031 7.617188 -7.65625 7.234375 -7.96875 C 6.859375 -8.28125 6.3125 -8.4375 5.59375 -8.4375 L 3.640625 -8.4375 L 3.640625 -4.8125 L 5.59375 -4.8125 C 6.3125 -4.8125 6.859375 -4.96875 7.234375 -5.28125 C 7.617188 -5.601562 7.8125 -6.050781 7.8125 -6.625 Z M 7.8125 -6.625 "/></g></g></g><g fill="#020101" fill-opacity="1"><g transform="translate(387.813791, 117.720538)"><g><path d="M 10.6875 0 L 10.671875 -6.234375 L 7.609375 -1.09375 L 6.53125 -1.09375 L 3.484375 -6.09375 L 3.484375 0 L 1.234375 0 L 1.234375 -10.390625 L 3.21875 -10.390625 L 7.109375 -3.9375 L 10.9375 -10.390625 L 12.90625 -10.390625 L 12.9375 0 Z M 10.6875 0 "/></g></g></g><g fill="#020101" fill-opacity="1"><g transform="translate(408.737206, 117.720538)"><g><path d="M 8.078125 -2.21875 L 3.25 -2.21875 L 2.328125 0 L -0.140625 0 L 4.5 -10.390625 L 6.875 -10.390625 L 11.515625 0 L 9 0 Z M 7.3125 -4.046875 L 5.671875 -8.03125 L 4.015625 -4.046875 Z M 7.3125 -4.046875 "/></g></g></g><g fill="#020101" fill-opacity="1"><g transform="translate(426.856636, 117.720538)"><g><path d="M 4.640625 0.171875 C 3.816406 0.171875 3.019531 0.0625 2.25 -0.15625 C 1.488281 -0.375 0.878906 -0.664062 0.421875 -1.03125 L 1.234375 -2.828125 C 1.679688 -2.503906 2.207031 -2.242188 2.8125 -2.046875 C 3.425781 -1.847656 4.039062 -1.75 4.65625 -1.75 C 5.34375 -1.75 5.847656 -1.847656 6.171875 -2.046875 C 6.503906 -2.253906 6.671875 -2.523438 6.671875 -2.859375 C 6.671875 -3.109375 6.570312 -3.3125 6.375 -3.46875 C 6.175781 -3.632812 5.925781 -3.765625 5.625 -3.859375 C 5.332031 -3.960938 4.925781 -4.078125 4.40625 -4.203125 C 3.613281 -4.390625 2.960938 -4.578125 2.453125 -4.765625 C 1.953125 -4.953125 1.519531 -5.253906 1.15625 -5.671875 C 0.800781 -6.085938 0.625 -6.640625 0.625 -7.328125 C 0.625 -7.929688 0.785156 -8.476562 1.109375 -8.96875 C 1.441406 -9.457031 1.9375 -9.84375 2.59375 -10.125 C 3.25 -10.414062 4.050781 -10.5625 5 -10.5625 C 5.664062 -10.5625 6.3125 -10.484375 6.9375 -10.328125 C 7.570312 -10.171875 8.128906 -9.941406 8.609375 -9.640625 L 7.859375 -7.828125 C 6.898438 -8.367188 5.941406 -8.640625 4.984375 -8.640625 C 4.316406 -8.640625 3.820312 -8.53125 3.5 -8.3125 C 3.175781 -8.09375 3.015625 -7.804688 3.015625 -7.453125 C 3.015625 -7.097656 3.195312 -6.832031 3.5625 -6.65625 C 3.9375 -6.476562 4.503906 -6.304688 5.265625 -6.140625 C 6.054688 -5.953125 6.703125 -5.765625 7.203125 -5.578125 C 7.710938 -5.390625 8.144531 -5.09375 8.5 -4.6875 C 8.863281 -4.28125 9.046875 -3.734375 9.046875 -3.046875 C 9.046875 -2.453125 8.878906 -1.910156 8.546875 -1.421875 C 8.222656 -0.929688 7.726562 -0.539062 7.0625 -0.25 C 6.40625 0.03125 5.597656 0.171875 4.640625 0.171875 Z M 4.640625 0.171875 "/></g></g></g><g fill="#020101" fill-opacity="1"><g transform="translate(443.077032, 117.720538)"><g><path d="M 1.234375 -10.390625 L 3.640625 -10.390625 L 3.640625 0 L 1.234375 0 Z M 1.234375 -10.390625 "/></g></g></g><g fill="#020101" fill-opacity="1"><g transform="translate(454.698278, 117.720538)"><g/></g></g><g fill="#020101" fill-opacity="1"><g transform="translate(465.651921, 117.720538)"><g><path d="M 10.765625 -10.390625 L 10.765625 0 L 8.78125 0 L 3.609375 -6.3125 L 3.609375 0 L 1.234375 0 L 1.234375 -10.390625 L 3.21875 -10.390625 L 8.390625 -4.078125 L 8.390625 -10.390625 Z M 10.765625 -10.390625 "/></g></g></g><g fill="#020101" fill-opacity="1"><g transform="translate(484.394458, 117.720538)"><g><path d="M 8.078125 -2.21875 L 3.25 -2.21875 L 2.328125 0 L -0.140625 0 L 4.5 -10.390625 L 6.875 -10.390625 L 11.515625 0 L 9 0 Z M 7.3125 -4.046875 L 5.671875 -8.03125 L 4.015625 -4.046875 Z M 7.3125 -4.046875 "/></g></g></g><g fill="#020101" fill-opacity="1"><g transform="translate(502.513888, 117.720538)"><g><path d="M 8.25 -5.359375 L 10.453125 -5.359375 L 10.453125 -1.140625 C 9.890625 -0.710938 9.234375 -0.382812 8.484375 -0.15625 C 7.742188 0.0625 7 0.171875 6.25 0.171875 C 5.164062 0.171875 4.191406 -0.0546875 3.328125 -0.515625 C 2.472656 -0.972656 1.800781 -1.609375 1.3125 -2.421875 C 0.820312 -3.242188 0.578125 -4.164062 0.578125 -5.1875 C 0.578125 -6.21875 0.820312 -7.140625 1.3125 -7.953125 C 1.800781 -8.773438 2.476562 -9.414062 3.34375 -9.875 C 4.21875 -10.332031 5.203125 -10.5625 6.296875 -10.5625 C 7.203125 -10.5625 8.023438 -10.40625 8.765625 -10.09375 C 9.515625 -9.789062 10.140625 -9.347656 10.640625 -8.765625 L 9.09375 -7.34375 C 8.351562 -8.125 7.457031 -8.515625 6.40625 -8.515625 C 5.75 -8.515625 5.160156 -8.375 4.640625 -8.09375 C 4.128906 -7.820312 3.726562 -7.429688 3.4375 -6.921875 C 3.15625 -6.421875 3.015625 -5.84375 3.015625 -5.1875 C 3.015625 -4.550781 3.15625 -3.976562 3.4375 -3.46875 C 3.726562 -2.96875 4.128906 -2.578125 4.640625 -2.296875 C 5.148438 -2.015625 5.726562 -1.875 6.375 -1.875 C 7.070312 -1.875 7.695312 -2.019531 8.25 -2.3125 Z M 8.25 -5.359375 "/></g></g></g><g fill="#020101" fill-opacity="1"><g transform="translate(520.707476, 117.720538)"><g><path d="M 8.078125 -2.21875 L 3.25 -2.21875 L 2.328125 0 L -0.140625 0 L 4.5 -10.390625 L 6.875 -10.390625 L 11.515625 0 L 9 0 Z M 7.3125 -4.046875 L 5.671875 -8.03125 L 4.015625 -4.046875 Z M 7.3125 -4.046875 "/></g></g></g><g fill="#020101" fill-opacity="1"><g transform="translate(538.826905, 117.720538)"><g><path d="M 7.859375 0 L 5.84375 -2.890625 L 3.640625 -2.890625 L 3.640625 0 L 1.234375 0 L 1.234375 -10.390625 L 5.734375 -10.390625 C 6.648438 -10.390625 7.445312 -10.234375 8.125 -9.921875 C 8.800781 -9.617188 9.320312 -9.1875 9.6875 -8.625 C 10.050781 -8.0625 10.234375 -7.394531 10.234375 -6.625 C 10.234375 -5.851562 10.046875 -5.1875 9.671875 -4.625 C 9.304688 -4.0625 8.785156 -3.632812 8.109375 -3.34375 L 10.4375 0 Z M 7.8125 -6.625 C 7.8125 -7.207031 7.617188 -7.65625 7.234375 -7.96875 C 6.859375 -8.28125 6.3125 -8.4375 5.59375 -8.4375 L 3.640625 -8.4375 L 3.640625 -4.8125 L 5.59375 -4.8125 C 6.3125 -4.8125 6.859375 -4.96875 7.234375 -5.28125 C 7.617188 -5.601562 7.8125 -6.050781 7.8125 -6.625 Z M 7.8125 -6.625 "/></g></g></g><g fill="#020101" fill-opacity="1"><g transform="translate(556.486397, 117.720538)"><g><path d="M 1.234375 -10.390625 L 3.640625 -10.390625 L 3.640625 0 L 1.234375 0 Z M 1.234375 -10.390625 "/></g></g></g><g fill="#020101" fill-opacity="1"><g transform="translate(568.107642, 117.720538)"><g/></g></g><g fill="#020101" fill-opacity="1"><g transform="translate(579.061263, 117.720538)"><g><path d="M 3.390625 -8.4375 L 0.0625 -8.4375 L 0.0625 -10.390625 L 9.109375 -10.390625 L 9.109375 -8.4375 L 5.78125 -8.4375 L 5.78125 0 L 3.390625 0 Z M 3.390625 -8.4375 "/></g></g></g><g fill="#020101" fill-opacity="1"><g transform="translate(594.984937, 117.720538)"><g><path d="M 9.28125 -1.921875 L 9.28125 0 L 1.234375 0 L 1.234375 -10.390625 L 9.078125 -10.390625 L 9.078125 -8.453125 L 3.625 -8.453125 L 3.625 -6.203125 L 8.453125 -6.203125 L 8.453125 -4.328125 L 3.625 -4.328125 L 3.625 -1.921875 Z M 9.28125 -1.921875 "/></g></g></g><g fill="#020101" fill-opacity="1"><g transform="translate(611.694958, 117.720538)"><g><path d="M 7.859375 0 L 5.84375 -2.890625 L 3.640625 -2.890625 L 3.640625 0 L 1.234375 0 L 1.234375 -10.390625 L 5.734375 -10.390625 C 6.648438 -10.390625 7.445312 -10.234375 8.125 -9.921875 C 8.800781 -9.617188 9.320312 -9.1875 9.6875 -8.625 C 10.050781 -8.0625 10.234375 -7.394531 10.234375 -6.625 C 10.234375 -5.851562 10.046875 -5.1875 9.671875 -4.625 C 9.304688 -4.0625 8.785156 -3.632812 8.109375 -3.34375 L 10.4375 0 Z M 7.8125 -6.625 C 7.8125 -7.207031 7.617188 -7.65625 7.234375 -7.96875 C 6.859375 -8.28125 6.3125 -8.4375 5.59375 -8.4375 L 3.640625 -8.4375 L 3.640625 -4.8125 L 5.59375 -4.8125 C 6.3125 -4.8125 6.859375 -4.96875 7.234375 -5.28125 C 7.617188 -5.601562 7.8125 -6.050781 7.8125 -6.625 Z M 7.8125 -6.625 "/></g></g></g><g fill="#020101" fill-opacity="1"><g transform="translate(629.354472, 117.720538)"><g><path d="M 5.734375 -10.390625 C 6.648438 -10.390625 7.445312 -10.234375 8.125 -9.921875 C 8.800781 -9.617188 9.320312 -9.1875 9.6875 -8.625 C 10.050781 -8.0625 10.234375 -7.394531 10.234375 -6.625 C 10.234375 -5.863281 10.050781 -5.195312 9.6875 -4.625 C 9.320312 -4.050781 8.800781 -3.613281 8.125 -3.3125 C 7.445312 -3.007812 6.648438 -2.859375 5.734375 -2.859375 L 3.640625 -2.859375 L 3.640625 0 L 1.234375 0 L 1.234375 -10.390625 Z M 5.59375 -4.828125 C 6.3125 -4.828125 6.859375 -4.984375 7.234375 -5.296875 C 7.617188 -5.609375 7.8125 -6.050781 7.8125 -6.625 C 7.8125 -7.207031 7.617188 -7.65625 7.234375 -7.96875 C 6.859375 -8.28125 6.3125 -8.4375 5.59375 -8.4375 L 3.640625 -8.4375 L 3.640625 -4.828125 Z M 5.59375 -4.828125 "/></g></g></g><g fill="#020101" fill-opacity="1"><g transform="translate(646.969446, 117.720538)"><g><path d="M 8.078125 -2.21875 L 3.25 -2.21875 L 2.328125 0 L -0.140625 0 L 4.5 -10.390625 L 6.875 -10.390625 L 11.515625 0 L 9 0 Z M 7.3125 -4.046875 L 5.671875 -8.03125 L 4.015625 -4.046875 Z M 7.3125 -4.046875 "/></g></g></g><g fill="#020101" fill-opacity="1"><g transform="translate(665.088876, 117.720538)"><g><path d="M 1.234375 -10.390625 L 5.953125 -10.390625 C 7.078125 -10.390625 8.070312 -10.171875 8.9375 -9.734375 C 9.800781 -9.304688 10.472656 -8.703125 10.953125 -7.921875 C 11.441406 -7.140625 11.6875 -6.226562 11.6875 -5.1875 C 11.6875 -4.15625 11.441406 -3.25 10.953125 -2.46875 C 10.472656 -1.6875 9.800781 -1.078125 8.9375 -0.640625 C 8.070312 -0.210938 7.078125 0 5.953125 0 L 1.234375 0 Z M 5.828125 -1.96875 C 6.867188 -1.96875 7.695312 -2.253906 8.3125 -2.828125 C 8.9375 -3.410156 9.25 -4.195312 9.25 -5.1875 C 9.25 -6.175781 8.9375 -6.960938 8.3125 -7.546875 C 7.695312 -8.128906 6.867188 -8.421875 5.828125 -8.421875 L 3.640625 -8.421875 L 3.640625 -1.96875 Z M 5.828125 -1.96875 "/></g></g></g><g fill="#020101" fill-opacity="1"><g transform="translate(684.098472, 117.720538)"><g><path d="M 5.84375 0.171875 C 4.363281 0.171875 3.207031 -0.234375 2.375 -1.046875 C 1.550781 -1.867188 1.140625 -3.046875 1.140625 -4.578125 L 1.140625 -10.390625 L 3.546875 -10.390625 L 3.546875 -4.65625 C 3.546875 -2.800781 4.316406 -1.875 5.859375 -1.875 C 6.609375 -1.875 7.179688 -2.097656 7.578125 -2.546875 C 7.972656 -2.992188 8.171875 -3.695312 8.171875 -4.65625 L 8.171875 -10.390625 L 10.546875 -10.390625 L 10.546875 -4.578125 C 10.546875 -3.046875 10.132812 -1.867188 9.3125 -1.046875 C 8.488281 -0.234375 7.332031 0.171875 5.84375 0.171875 Z M 5.84375 0.171875 "/></g></g></g></svg>